<?xml version="1.0" encoding="UTF-8"?>
<svg width="30px" height="30px" viewBox="0 0 30 30" version="1.1" xmlns="http://www.w3.org/2000/svg" xmlns:xlink="http://www.w3.org/1999/xlink">
    <title>5603D7E7-092A-4AD4-8600-D70204BF2692</title>
    <g id="email-signature" stroke="none" stroke-width="1" fill="none" fill-rule="evenodd" opacity="0.600960141">
        <g transform="translate(-363.000000, -238.000000)" fill="#1C1C21" id="Group-10">
            <g transform="translate(363.000000, 238.000000)">
                <path d="M24,0 C27.3137085,-6.08718376e-16 30,2.6862915 30,6 L30,24 C30,27.3137085 27.3137085,30 24,30 L6,30 C2.6862915,30 4.05812251e-16,27.3137085 0,24 L0,6 C-4.05812251e-16,2.6862915 2.6862915,6.08718376e-16 6,0 L24,0 Z M16.7551662,7.5 C14.7809558,7.5 13.4285685,8.741875 13.4285685,11.024375 L13.4285685,13.125 L11.25,13.125 L11.25,15.79125 L13.4285685,15.79125 L13.4285685,22.5 L16.0995959,22.5 L16.0995959,15.791875 L18.1900467,15.791875 L18.521894,13.125625 L16.0989709,13.125625 L16.0989709,11.28875 C16.0995959,10.518125 16.3070786,9.990625 17.3807391,9.990625 L18.75,9.990625 L18.75,7.605625 C18.5137697,7.573125 17.7013374,7.5 16.7551662,7.5 Z" id="facebook"></path>
            </g>
        </g>
    </g>
</svg>