<?xml version="1.0" encoding="UTF-8"?>
<svg width="30px" height="30px" viewBox="0 0 30 30" version="1.1" xmlns="http://www.w3.org/2000/svg" xmlns:xlink="http://www.w3.org/1999/xlink">
    <title>6B2A81AD-23D7-4485-BB0F-C19B2B9692A6</title>
    <g id="email-signature" stroke="none" stroke-width="1" fill="none" fill-rule="evenodd" opacity="0.600960141">
        <g transform="translate(-463.000000, -238.000000)" fill="#1C1C21" id="Group-10">
            <g transform="translate(363.000000, 238.000000)">
                <path d="M124,0 C127.313708,-6.08718376e-16 130,2.6862915 130,6 L130,24 C130,27.3137085 127.313708,30 124,30 L106,30 C102.686292,30 100,27.3137085 100,24 L100,6 C100,2.6862915 102.686292,6.08718376e-16 106,0 L124,0 Z M118.774375,12.23375 C117.261875,12.23375 116.246875,13.06375 115.8325,13.850625 L115.8325,13.850625 L115.78875,13.850625 L115.78875,12.485 L112.805625,12.485 L112.805625,22.499375 L115.911875,22.499375 L115.911875,17.540625 L115.912951,17.395795 C115.932087,16.1432133 116.219259,14.9725 117.77625,14.9725 C119.369375,14.9725 119.393125,16.4625 119.393125,17.624375 L119.393125,17.624375 L119.393125,22.5 L122.49625,22.5 L122.5,16.998125 L122.498883,16.797463 C122.469427,14.2045145 121.841969,12.23375 118.774375,12.23375 Z M110.8575,12.485625 L107.7475,12.485625 L107.7475,22.5 L110.8575,22.5 L110.8575,12.485625 Z M109.30125,7.5 C108.306875,7.5 107.5,8.306875 107.5,9.30125 C107.5,10.295625 108.306875,11.119375 109.30125,11.119375 C110.295625,11.119375 111.1025,10.295625 111.1025,9.30125 C111.101875,8.306875 110.295,7.5 109.30125,7.5 Z" id="linkedin"></path>
            </g>
        </g>
    </g>
</svg>