<?xml version="1.0" encoding="UTF-8"?>
<svg width="20px" height="20px" viewBox="0 0 20 20" version="1.1" xmlns="http://www.w3.org/2000/svg" xmlns:xlink="http://www.w3.org/1999/xlink">
    <title>89116176-C324-47CD-984B-C897757E39B6</title>
    <g id="email-signature" stroke="none" stroke-width="1" fill="none" fill-rule="evenodd" opacity="0.600960141">
        <g transform="translate(-80.000000, -147.000000)" fill="#1C1C21" id="Group-9">
            <g transform="translate(80.000000, 147.000000)">
                <path d="M16,0 C18.209139,-4.05812251e-16 20,1.790861 20,4 L20,16 C20,18.209139 18.209139,20 16,20 L4,20 C1.790861,20 2.705415e-16,18.209139 0,16 L0,4 C-2.705415e-16,1.790861 1.790861,4.05812251e-16 4,0 L16,0 Z M11.3327449,9.97858799 L10.2262181,10.9180342 C10.1614937,10.9727074 10.0808999,11.000011 10.0000113,11.000011 C9.91907747,11.000011 9.83848367,10.9727074 9.77375925,10.9180342 L8.66698302,9.97854403 L5.14989664,13.7949152 C5.36071008,13.9231674 5.60777373,14 5.87496883,14 L14.1250312,14 C14.3921809,14 14.6393579,13.9231674 14.8501034,13.7949152 L11.3327449,9.97858799 Z M4.71419135,6.62508106 C4.58057113,6.83073744 4.5,7.07231498 4.5,7.33339196 L4.5,12.666652 C4.5,12.9004913 4.5675129,13.1172714 4.67658091,13.3080009 L8.1493237,9.53913627 L4.71419135,6.62508106 Z M15.285854,6.62510305 L11.8503589,9.53977379 L15.3235098,13.3079789 C15.4321697,13.1172494 15.5,12.9004693 15.5,12.66663 L15.5,12.66663 L15.5,7.33339196 C15.5,7.07233696 15.4194969,6.83075942 15.285854,6.62510305 L15.285854,6.62510305 Z M14.1250312,6 L5.8749915,6 C5.63640664,6 5.41543679,6.06386229 5.22006199,6.16799851 L10.0000113,10.2239687 L14.7803914,6.16799851 C14.5842232,6.06386229 14.3633213,6 14.1250312,6 Z" id="mail"></path>
            </g>
        </g>
    </g>
</svg>