<?xml version="1.0" encoding="UTF-8"?>
<svg width="20px" height="20px" viewBox="0 0 20 20" version="1.1" xmlns="http://www.w3.org/2000/svg" xmlns:xlink="http://www.w3.org/1999/xlink">
    <title>61219921-D409-485F-AB19-78DF195A7F6C</title>
    <g id="email-signature" stroke="none" stroke-width="1" fill="none" fill-rule="evenodd" opacity="0.600960141">
        <g transform="translate(-225.000000, -177.000000)" fill="#1C1C21" id="Group-3">
            <g transform="translate(225.000000, 177.000000)">
                <path d="M16,0 C18.209139,-4.05812251e-16 20,1.790861 20,4 L20,16 C20,18.209139 18.209139,20 16,20 L4,20 C1.790861,20 2.705415e-16,18.209139 0,16 L0,4 C-2.705415e-16,1.790861 1.790861,4.05812251e-16 4,0 L16,0 Z M6.66016776,4.42635384 C6.26590548,4.29445273 5.70309763,4.42746676 5.41011109,4.72181232 L5.41011109,4.72181232 L4.60946807,5.5225757 C4.46664331,5.66403964 4.37497166,6.0706248 4.37497166,6.07177893 C4.34822036,8.61330717 5.34432514,11.0608971 7.1411966,12.8587916 C8.93316296,14.6509155 11.3720657,15.645862 13.905072,15.6237686 C13.9185095,15.6237686 14.3370912,15.5346941 14.4800396,15.3919524 L14.4800396,15.3919524 L15.2807238,14.5911066 C15.5736691,14.2994402 15.7056532,13.7367584 15.5750706,13.3436106 L15.5750706,13.3436106 L15.5188887,13.1727575 C15.387152,12.7797746 14.9525772,12.3696446 14.5520496,12.2595896 L14.5520496,12.2595896 L13.0740504,11.8553952 C12.6733167,11.7469477 12.1021826,11.8933167 11.8078358,12.1876623 L11.8078358,12.1876623 L11.273428,12.7224801 C9.32993961,12.1963183 7.80528019,10.6713766 7.28039406,8.72822601 L7.28039406,8.72822601 L7.81500793,8.1935319 C8.10791204,7.90054657 8.25440531,7.32920868 8.14579254,6.92761102 L8.14579254,6.92761102 L7.7430391,5.4494118 C7.63442633,5.04896829 7.22169782,4.61431292 6.82858968,4.48253547 L6.82858968,4.48253547 Z" id="phone"></path>
            </g>
        </g>
    </g>
</svg>