<?xml version="1.0" encoding="UTF-8"?>
<svg width="190px" height="35px" viewBox="0 0 190 35" version="1.1" xmlns="http://www.w3.org/2000/svg" xmlns:xlink="http://www.w3.org/1999/xlink">
    <title>172C1A77-14CF-41EF-B571-295823D0E7AA</title>
    <defs>
        <linearGradient x1="87.8250894%" y1="0%" x2="7.13667849%" y2="115.630668%" id="linearGradient-1">
            <stop stop-color="#00A1E4" offset="0%"></stop>
            <stop stop-color="#0037A9" offset="100%"></stop>
        </linearGradient>
    </defs>
    <g id="email-signature" stroke="none" stroke-width="1" fill="none" fill-rule="evenodd">
        <g transform="translate(-120.000000, -262.000000)" id="logo-w-tagline">
            <g transform="translate(120.000000, 262.000000)" id="rzt-logo_default">
                <path d="M43.0103912,17.9443981 C43.8984162,17.9443981 44.6008969,17.7710625 45.1178544,17.424386 C45.6348118,17.0777095 45.8932866,16.4524631 45.8932866,15.548628 C45.8932866,14.5766957 45.531739,13.9143059 44.8086329,13.5614387 C44.4217077,13.3757192 43.9047581,13.2828608 43.2577684,13.2828608 L36.7403315,13.2828608 L36.7403315,17.9443981 L43.0103912,17.9443981 Z M36.7403315,11.6949667 L43.2101959,11.6949667 C44.2758259,11.6949667 45.1543232,11.8466353 45.8457141,12.1499773 C47.1587226,12.7318985 47.8152169,13.8059604 47.8152169,15.3721952 C47.8152169,16.1893612 47.6423718,16.8579416 47.2966764,17.3779564 C46.9509809,17.897971 46.4673316,18.3158338 45.8457141,18.631557 C46.3912152,18.8482298 46.8019206,19.1329955 47.0778427,19.4858627 C47.3537647,19.8387298 47.5075811,20.4113564 47.5392962,21.2037598 L47.6058978,23.0330883 C47.6249269,23.553103 47.6693274,23.9400129 47.7391009,24.1938296 C47.8532755,24.6271753 48.0562496,24.9057503 48.3480292,25.0295634 L48.3480292,25.3359991 L46.0264897,25.3359991 C45.9630593,25.2183767 45.9123158,25.066708 45.8742576,24.8809885 C45.8361994,24.695269 45.8044847,24.3362166 45.7791126,23.8038205 L45.6649385,21.5287675 C45.6205372,20.6373136 45.2811899,20.0399247 44.6468863,19.7365828 C44.2853333,19.5694352 43.7176401,19.4858627 42.9437897,19.4858627 L38.6337183,19.4858627 L38.6337183,25.3359991 L36.7403315,25.3359991 L36.7403315,11.6949667 Z M57.6912745,11.6949667 L59.8320385,11.6949667 L64.9032703,25.3359991 L62.8291079,25.3359991 L58.6474824,13.7192995 L54.3707118,25.3359991 L52.4297525,25.3359991 L57.6912745,11.6949667 Z M68.6329568,23.8038205 L77.205527,13.3200045 L69.2609142,13.3200045 L69.2609142,11.6949667 L79.6412407,11.6949667 L79.6412407,13.2828608 L71.0210979,23.7109612 L79.6412407,23.7109612 L79.6412407,25.3359991 L68.6329568,25.3359991 L68.6329568,23.8038205 Z M90.6495244,11.3235294 C93.1169657,11.3235294 94.9437326,12.0973492 96.1298805,13.6450121 C97.0559631,14.8521892 97.5189978,16.3967335 97.5189978,18.2786917 C97.5189978,20.315416 96.9893622,22.0085338 95.9300754,23.3580958 C94.6868402,24.9429027 92.9139885,25.7352941 90.6114665,25.7352941 C88.4611773,25.7352941 86.7707836,25.0419516 85.5402346,23.6552456 C84.4428893,22.3180649 83.894225,20.6280423 83.894225,18.5851274 C83.894225,16.7403132 84.3636026,15.1617208 85.302372,13.8493026 C86.5075488,12.1654454 88.2899151,11.3235294 90.6495244,11.3235294 Z M90.8398146,24.0823984 C92.5080332,24.0823984 93.7147773,23.4989382 94.4600844,22.3320005 C95.2053914,21.1650626 95.5780389,19.823259 95.5780389,18.3065494 C95.5780389,16.7031707 95.1483041,15.4124392 94.2888233,14.4343163 C93.4293416,13.4561933 92.254312,12.9671391 90.7636985,12.9671391 C89.3174863,12.9671391 88.1376994,13.4515503 87.2243022,14.4203873 C86.3109051,15.3892243 85.8542133,16.8176957 85.8542133,18.7058444 C85.8542133,20.2163634 86.2458899,21.4900709 87.0292548,22.527005 C87.8126198,23.5639392 89.0827937,24.0823984 90.8398146,24.0823984 L90.8398146,24.0823984 Z M109.316986,17.9443981 C110.205011,17.9443981 110.907492,17.7710625 111.42445,17.424386 C111.941406,17.0777095 112.199881,16.4524631 112.199881,15.548628 C112.199881,14.5766957 111.838334,13.9143059 111.115227,13.5614387 C110.728303,13.3757192 110.211353,13.2828608 109.564363,13.2828608 L103.046926,13.2828608 L103.046926,17.9443981 L109.316986,17.9443981 Z M103.046926,11.6949667 L109.516791,11.6949667 C110.582421,11.6949667 111.460918,11.8466353 112.152309,12.1499773 C113.465317,12.7318985 114.121812,13.8059604 114.121812,15.3721952 C114.121812,16.1893612 113.948966,16.8579416 113.603271,17.3779564 C113.257575,17.897971 112.773926,18.3158338 112.152309,18.631557 C112.69781,18.8482298 113.108515,19.1329955 113.384437,19.4858627 C113.660359,19.8387298 113.814176,20.4113564 113.845891,21.2037598 L113.912492,23.0330883 C113.931521,23.553103 113.975922,23.9400129 114.045696,24.1938296 C114.159871,24.6271753 114.362844,24.9057503 114.654624,25.0295634 L114.654624,25.3359991 L112.333084,25.3359991 C112.269654,25.2183767 112.218911,25.066708 112.180852,24.8809885 C112.142794,24.695269 112.111079,24.3362166 112.085707,23.8038205 L111.971534,21.5287675 C111.927132,20.6373136 111.587784,20.0399247 110.953481,19.7365828 C110.591928,19.5694352 110.024235,19.4858627 109.250385,19.4858627 L104.940313,19.4858627 L104.940313,25.3359991 L103.046926,25.3359991 L103.046926,17.9443981 L103.046926,13.2828608 L103.046926,11.6949667 Z M130.125212,11.648537 L130.125212,14.0721649 L125.929314,14.0721649 L125.929314,25.3359991 L122.979817,25.3359991 L122.979817,14.0721649 L118.764891,14.0721649 L118.764891,11.648537 L130.125212,11.648537 Z M134.863436,25.3359991 L134.863436,11.648537 L137.76536,11.648537 L137.76536,16.8672301 L143.245716,16.8672301 L143.245716,11.648537 L146.157155,11.648537 L146.157155,25.3359991 L143.245716,25.3359991 L143.245716,19.2258566 L137.76536,19.2258566 L137.76536,25.3359991 L134.863436,25.3359991 Z M154.682152,25.3359991 L151.770714,25.3359991 L151.770714,11.648537 L154.682152,11.648537 L154.682152,25.3359991 Z M160.409885,11.648537 L163.483071,11.648537 L169.068086,21.2037598 L169.068086,11.648537 L171.798749,11.648537 L171.798749,25.3359991 L168.868281,25.3359991 L163.140549,15.6136294 L163.140549,25.3359991 L160.409885,25.3359991 L160.409885,11.648537 Z M177.621627,11.648537 L180.504522,11.648537 L180.504522,17.2850971 L185.918276,11.648537 L189.70505,11.648537 L183.958288,17.2850971 L190,25.3359991 L186.232255,25.3359991 L181.903155,19.3558596 L180.504522,20.7580351 L180.504522,25.3359991 L177.621627,25.3359991 L177.621627,11.648537 Z" id="a" fill="#1C1C21" fill-rule="nonzero"></path>
                <path d="M24.2293381,9.35344828 L24.1920622,28.1271582 L8.75983763,28.1271582 L0,35 L24.2293381,9.35344828 Z M30.441989,0 L6.2126508,25.6465517 L6.2126508,6.89928364 L21.6448754,6.89928364 L30.441989,0 Z" id="Combined-Shape" fill="url(#linearGradient-1)"></path>
            </g>
        </g>
    </g>
</svg>