<?xml version="1.0" encoding="UTF-8"?>
<svg width="20px" height="20px" viewBox="0 0 20 20" version="1.1" xmlns="http://www.w3.org/2000/svg" xmlns:xlink="http://www.w3.org/1999/xlink">
    <title>346A5463-6BD5-47E9-B963-5A3DC8D9D01C</title>
    <g id="email-signature" stroke="none" stroke-width="1" fill="none" fill-rule="evenodd" opacity="0.600960141">
        <g transform="translate(-80.000000, -177.000000)" fill="#1C1C21" id="Group-8">
            <g transform="translate(80.000000, 177.000000)">
                <path d="M16,0 C18.209139,-4.05812251e-16 20,1.790861 20,4 L20,16 C20,18.209139 18.209139,20 16,20 L4,20 C1.790861,20 2.705415e-16,18.209139 0,16 L0,4 C-2.705415e-16,1.790861 1.790861,4.05812251e-16 4,0 L16,0 Z M7.28746165,4.08621097 C5.47121057,4.08746952 3.99996067,5.55871942 3.99996067,7.3749705 C3.99996067,8.03500354 4.19373869,8.65000393 4.52996932,9.16498859 C4.48497601,9.44623614 4.4612208,9.73499567 4.4612208,10.0287501 C4.4612208,13.0562416 6.92747581,15.5099898 9.97121057,15.5099898 C10.3149925,15.5099898 10.6487454,15.4762448 10.9737277,15.417486 C11.4799811,15.7300008 12.0737434,15.9124912 12.7112405,15.9124912 C14.5287501,15.9124912 16,14.4412412 16,12.6237316 C16,11.9387241 15.7899788,11.3012271 15.4287344,10.772477 C15.4612208,10.5287108 15.4799811,10.2812082 15.4799811,10.0287108 C15.4799811,7.00247778 13.0125069,4.54747109 9.96999135,4.54747109 C9.66746637,4.54747109 9.36997562,4.57244553 9.08247463,4.61995595 C8.56497286,4.28246677 7.94997247,4.08621097 7.28746165,4.08621097 Z M9.21124046,5.94745536 C10.7137576,5.81121686 11.6924801,6.17497837 12.4637379,6.83497208 C13.3575081,7.59745929 12.8737513,8.44871391 12.3050028,8.51746244 C11.738732,8.58621097 11.101235,7.26374577 9.84873751,7.24372689 C8.55875875,7.22374735 7.68748525,8.58621097 9.27998899,8.97372768 C10.8724927,9.35998584 12.5787383,9.51876032 13.1937387,10.9737277 C13.8087391,12.4312121 12.238732,13.977464 10.4862346,14.0687092 C8.73499567,14.1612129 7.91622748,13.772477 7.16498859,13.0687092 C6.32624086,12.2812082 6.66247149,11.3837017 7.3462204,11.3374499 C8.0287501,11.2936758 8.43872414,12.1111854 8.80248564,12.3411862 C9.16624715,12.5687092 10.5512468,13.0861716 11.2812475,12.249941 C12.0787383,11.3399276 10.753756,10.8686777 9.78124754,10.7261858 C8.39377016,10.5199402 6.64127271,9.76870133 6.77751121,8.28993943 C6.91500826,6.81243609 8.03374499,6.0536852 9.21124046,5.94745536 Z" id="skype"></path>
            </g>
        </g>
    </g>
</svg>