<?xml version="1.0" encoding="UTF-8"?>
<svg width="30px" height="30px" viewBox="0 0 30 30" version="1.1" xmlns="http://www.w3.org/2000/svg" xmlns:xlink="http://www.w3.org/1999/xlink">
    <title>E7289EDE-A0F1-4FAC-BA7B-AEF6A11D447B</title>
    <g id="email-signature" stroke="none" stroke-width="1" fill="none" fill-rule="evenodd" opacity="0.600960141">
        <g transform="translate(-413.000000, -238.000000)" fill="#1C1C21" id="Group-10">
            <g transform="translate(363.000000, 238.000000)">
                <path d="M74,0 C77.3137085,-6.08718376e-16 80,2.6862915 80,6 L80,24 C80,27.3137085 77.3137085,30 74,30 L56,30 C52.6862915,30 50,27.3137085 50,24 L50,6 C50,2.6862915 52.6862915,6.08718376e-16 56,0 L74,0 Z M67.8846875,9 C66.1821875,9 64.8115625,10.3606154 64.8115625,12.0286154 C64.8115625,12.2686154 64.8321875,12.4993846 64.8828125,12.7190769 C62.32625,12.5963077 60.0640625,11.3898462 58.544375,9.552 C58.2790625,10.0052308 58.1234375,10.524 58.1234375,11.0824615 C58.1234375,12.1310769 58.671875,13.0606154 59.489375,13.5987692 C58.9953125,13.5895385 58.510625,13.4483077 58.1,13.2258462 L58.1,13.2590769 L58.1,13.2590769 C58.1,14.7304615 59.1659375,15.9526154 60.56375,16.2341538 C60.3134375,16.3015385 60.040625,16.3338462 59.7575,16.3338462 C59.560625,16.3338462 59.361875,16.3227692 59.1753125,16.2821538 C59.57375,17.4812308 60.704375,18.3627692 62.04875,18.3913846 C61.0025,19.1972308 59.6740625,19.6827692 58.2359375,19.6827692 C57.98375,19.6827692 57.741875,19.6716923 57.5,19.6412308 C58.8621875,20.5061538 60.4765625,21 62.2175,21 C67.87625,21 70.97,16.3846154 70.97,12.384 C70.97,12.2501538 70.9653125,12.1209231 70.95875,11.9926154 C71.5690625,11.5661538 72.081875,11.0335385 72.5,10.4206154 C71.9421875,10.6615385 71.3478125,10.8212308 70.728125,10.8987692 C71.365625,10.524 71.8521875,9.93507692 72.0809375,9.22523077 C71.4865625,9.57415385 70.8303125,9.82061538 70.1309375,9.95815385 C69.5665625,9.36646154 68.7621875,9 67.8846875,9 Z" id="twitter"></path>
            </g>
        </g>
    </g>
</svg>