<?xml version="1.0" encoding="UTF-8"?>
<svg width="20px" height="20px" viewBox="0 0 20 20" version="1.1" xmlns="http://www.w3.org/2000/svg" xmlns:xlink="http://www.w3.org/1999/xlink">
    <title>3390FB76-67A9-4B28-B938-AFB9700DE7A7</title>
    <g id="email-signature" stroke="none" stroke-width="1" fill="none" fill-rule="evenodd" opacity="0.600960141">
        <g transform="translate(-363.000000, -318.000000)" fill="#1C1C21" id="Group-4">
            <g transform="translate(363.000000, 288.000000)">
                <path d="M16,30 C18.209139,30 20,31.790861 20,34 L20,46 C20,48.209139 18.209139,50 16,50 L4,50 C1.790861,50 2.705415e-16,48.209139 0,46 L0,34 C-2.705415e-16,31.790861 1.790861,30 4,30 L16,30 Z M10.2144615,43.2295827 L10.2144615,46 L10.3663216,45.9706148 C11.2205629,45.7613219 11.9646637,44.830955 12.4427457,43.4924277 C11.7109796,43.3282152 10.964239,43.2400756 10.2144615,43.2295827 L10.2144615,43.2295827 Z M9.78553851,43.2295827 C9.03576103,43.2401805 8.28902039,43.3282152 7.5572543,43.4924277 C8.06335411,44.9096919 8.86789886,45.8693645 9.78553851,46 L9.78553851,46 Z M12.8632913,43.5975657 C12.5985654,44.4434962 12.1274412,45.2101011 11.4926436,45.827708 L11.4926436,45.827708 L11.5447929,45.8150117 L11.6130426,45.7949705 L11.6130426,45.7949705 L11.6805068,45.7746144 C11.7347505,45.7588752 11.7887848,45.743031 11.8424001,45.725613 C11.8876381,45.711028 11.9322478,45.6952887 11.9768574,45.6796544 C12.0296351,45.6613969 12.0822033,45.6426148 12.134562,45.6226785 C12.1791717,45.6056801 12.2233625,45.5876325 12.267658,45.5695848 C12.3187602,45.5480746 12.3697576,45.5266693 12.4202314,45.505159 C12.4643175,45.4857473 12.5080894,45.4653912 12.5518614,45.4449302 C12.6013928,45.4215313 12.6507147,45.3977126 12.6996178,45.3729495 C12.742552,45.3510196 12.7853814,45.3286699 12.8283156,45.3056906 C12.876381,45.2798783 12.9241322,45.2535413 12.9715692,45.2264699 C13.0145034,45.2021265 13.0558668,45.1776783 13.0976491,45.1524955 C13.1441437,45.1238502 13.1904288,45.0952048 13.2363998,45.0665594 C13.2775538,45.0403274 13.3186031,45.0136756 13.3591288,44.9861845 L13.3591288,44.9861845 L13.4933766,44.892064 L13.5530002,44.8491352 L13.5530002,44.8491352 L13.6119169,44.8061278 L13.7418713,44.7042426 L13.7990733,44.6584415 L13.7990733,44.6584415 L13.855804,44.6120108 C13.8986335,44.5763352 13.9396827,44.5394005 13.9812556,44.5024658 L13.9812556,44.5024658 L14.0899524,44.4046728 L14.1507147,44.3464115 L14.1507147,44.3464115 L14.2106917,44.2873632 C14.2452484,44.2531566 14.2802241,44.2194747 14.3140479,44.1844287 L14.3140479,44.1844287 L14.3327923,44.1641775 L14.0492064,44.0252091 C13.6672873,43.8483187 13.2705168,43.70518 12.8632913,43.5975657 Z M7.13775591,43.5962016 C6.62872403,43.7308244 6.13592334,43.9208492 5.66825489,44.1631283 L5.66825489,44.1631283 L5.68678989,44.1830646 L5.73662234,44.2347024 L5.73662234,44.2347024 L5.78857532,44.2857892 C5.82847269,44.3251373 5.86816064,44.3649051 5.9091052,44.4032038 C5.94470916,44.4362562 5.98136028,44.4676297 6.01790671,44.500682 C6.05947956,44.5377217 6.10105241,44.5748662 6.14377716,44.6105418 C6.18084715,44.6417054 6.2186502,44.6718198 6.25655793,44.7020391 C6.29949213,44.7368753 6.34232159,44.7715015 6.38776898,44.8049736 C6.42640977,44.8340387 6.46567882,44.8621594 6.5049479,44.8910147 C6.549767,44.9232276 6.59500497,44.9554405 6.64066181,44.9863943 C6.68076863,45.0134658 6.72150374,45.0399077 6.76223885,45.0659299 C6.80862872,45.0957294 6.85491388,45.1250044 6.90214146,45.153335 C6.94350489,45.1783079 6.98528719,45.2027561 7.0271742,45.2266797 C7.07513484,45.2541709 7.12320016,45.2808226 7.17168438,45.3067399 C7.21451385,45.3282502 7.25744804,45.3516491 7.30038222,45.3731594 C7.34970418,45.3981323 7.39944501,45.4221608 7.45044245,45.4458746 C7.49337662,45.4661257 7.53693911,45.4860621 7.58112992,45.5055787 C7.63191791,45.5281382 7.68312478,45.5484943 7.73443638,45.5700046 C7.77862716,45.5880522 7.82260852,45.60589 7.86721817,45.6228883 C7.9192628,45.6429296 7.97204043,45.6616068 8.02481806,45.6798643 C8.06942772,45.6954986 8.1140374,45.7112378 8.15927537,45.7258228 C8.21289074,45.7432409 8.26650611,45.75919 8.32158752,45.7750341 C8.36619719,45.7881501 8.4110163,45.801476 8.45604482,45.8135427 C8.47342794,45.8182645 8.49102048,45.821937 8.50840358,45.8264489 C7.87360596,45.208737 7.40258652,44.4422371 7.13775591,43.5962016 Z M16,40.2148928 L13.4285565,40.2148928 L13.4160725,40.6456121 C13.3745073,41.5060013 13.2334976,42.359144 12.9955495,43.1879263 C13.5616524,43.3394425 14.1079638,43.5572733 14.623174,43.8369067 C15.4690822,42.8153265 15.953296,41.541604 16,40.2148928 L16,40.2148928 Z M6.57144353,40.2148928 L4,40.2148928 L4.0166963,40.4982836 C4.1178131,41.7221735 4.59133987,42.8881991 5.37682601,43.8369067 C5.89203623,43.5572733 6.43834755,43.3394425 7.00434577,43.1879263 C6.72684434,42.2210136 6.58118226,41.2209437 6.57144353,40.2148928 L6.57144353,40.2148928 Z M12.9996335,40.2148928 L10.2144615,40.2148928 L10.2144615,42.7997971 L10.6911633,42.8162297 C11.3259626,42.8515561 11.9569821,42.9404848 12.5774125,43.0822637 C12.8466412,42.1499773 12.9887429,41.185373 12.9996335,40.2148928 L12.9996335,40.2148928 Z M9.78553851,40.2148928 L7.00036651,40.2148928 L7.01304985,40.6303761 C7.0544264,41.4603147 7.19173031,42.283161 7.42258757,43.0822637 C8.19812555,42.9049351 8.99010419,42.81029 9.78553851,42.7997971 L9.78553851,42.7997971 L9.78553851,40.2148928 Z M12.5774125,36.9178413 C11.8018745,37.0950649 11.0097911,37.1897101 10.2144615,37.2002029 L10.2144615,37.2002029 L10.2144615,39.7851072 L12.9996335,39.7851072 L12.9869447,39.3696298 C12.945548,38.5397132 12.8081799,37.7169439 12.5774125,36.9178413 Z M14.623174,36.1630933 C14.1079638,36.4427267 13.5616524,36.6605575 12.9955495,36.8120737 C13.2731557,37.7789864 13.4188177,38.7790564 13.4285565,39.7851072 L13.4285565,39.7851072 L16,39.7851072 L15.9833022,39.5017165 C15.882173,38.2778265 15.4085629,37.1118009 14.623174,36.1630933 Z M5.37682601,36.1630933 C4.53091786,37.1846735 4.04670403,38.4585009 4,39.7851072 L4,39.7851072 L6.57144353,39.7851072 L6.5839272,39.354388 C6.62549059,38.4939988 6.7664874,37.640856 7.00434577,36.8120737 C6.43834755,36.6606625 5.89203623,36.4428317 5.37682601,36.1630933 Z M7.42258757,36.9178413 C7.1532541,37.8501277 7.01125714,38.814627 7.00036651,39.7851072 L7.00036651,39.7851072 L9.78553851,39.7851072 L9.78553851,37.2002029 L9.3088367,37.1838215 C8.67403739,37.1485488 8.04301795,37.0596202 7.42258757,36.9178413 Z M10.2144615,34 L10.2144615,36.7704173 L10.6638681,36.7547763 C11.2623363,36.7215585 11.8573329,36.6389423 12.4427457,36.5075723 C11.9365412,35.0903081 11.1321012,34.1306355 10.2144615,34 L10.2144615,34 Z M9.78553851,34 C8.86789886,34.1306355 8.06335411,35.0903081 7.5572543,36.5075723 C8.28902039,36.6718898 9.03576103,36.7599245 9.78553851,36.7704173 L9.78553851,36.7704173 Z M11.4915964,34.1740758 C12.1263941,34.7916827 12.5974135,35.5581827 12.8622441,36.4042181 C13.3717996,36.2697003 13.8652286,36.0795705 14.3334206,35.8370816 C14.3271376,35.830681 14.3211686,35.8237557 14.3149903,35.8171453 C14.2810619,35.7820993 14.2458768,35.7483124 14.21132,35.7142108 C14.1715273,35.6748627 14.1318394,35.635095 14.0907901,35.5969011 C14.0552909,35.5637438 14.018535,35.5323703 13.9820933,35.499318 C13.9405205,35.4623833 13.8989476,35.4251338 13.8562228,35.3894582 C13.8191528,35.3580847 13.7811404,35.3280753 13.7434421,35.2979609 C13.7005079,35.2631248 13.6565265,35.2284985 13.6123357,35.1952363 C13.5735903,35.1659613 13.5343212,35.1376307 13.4948427,35.1093001 C13.4500236,35.0769823 13.404995,35.0447694 13.3593382,35.0140254 C13.3192314,34.9869539 13.2784963,34.9605121 13.2377611,34.9345948 C13.1913713,34.9046903 13.1450861,34.8754153 13.0978585,34.8470847 C13.0564951,34.8222168 13.0147128,34.7976636 12.9728258,34.7738449 L12.9728258,34.7738449 L12.8283156,34.6936798 L12.7639667,34.6604701 L12.7639667,34.6604701 L12.6996178,34.6272603 C12.6502959,34.6022874 12.600555,34.5782589 12.5495576,34.5546501 C12.5066234,34.5341891 12.4630609,34.5142528 12.4188701,34.494841 C12.3680821,34.4722815 12.3167705,34.4519254 12.2655637,34.4304152 C12.2213729,34.4123675 12.1773915,34.3945297 12.1327818,34.3775314 C12.0807372,34.357595 12.0279596,34.3389179 11.975182,34.3206603 C11.9305723,34.3049211 11.8859626,34.2892869 11.8407247,34.2745969 C11.7871093,34.2571788 11.7334939,34.2413347 11.6784125,34.2253856 C11.6338028,34.2122696 11.5889837,34.1989437 11.5438505,34.1869819 L11.5438505,34.1869819 Z M8.5067281,34.1738659 C8.489345,34.1783778 8.47196188,34.1820503 8.45457879,34.1865622 C8.40913137,34.1987339 8.36431227,34.2122696 8.3190743,34.2253856 C8.2652495,34.2411248 8.21184355,34.256969 8.15780931,34.2741772 C8.1122572,34.2889721 8.06743808,34.3047113 8.022619,34.3203456 C7.9701555,34.3389179 7.91758732,34.3573852 7.86564743,34.3771117 C7.82082833,34.3943199 7.77663752,34.4121577 7.73223729,34.4304152 C7.68123985,34.4519254 7.63013769,34.4734357 7.57976857,34.494841 C7.53557779,34.5142528 7.49191056,34.5346088 7.44813865,34.5550698 C7.39860727,34.5784687 7.34928531,34.6022874 7.30038222,34.6270505 C7.25744804,34.6489804 7.21451385,34.6714351 7.17168438,34.6943094 C7.12361903,34.7201217 7.07597258,34.7465636 7.02864023,34.7736351 C6.98570606,34.7976636 6.94350489,34.8223217 6.90214146,34.8475045 C6.85554217,34.8756252 6.80946646,34.9046903 6.7636002,34.9334406 C6.72234148,34.9598825 6.68139695,34.9865342 6.64087126,35.0140254 C6.59563329,35.0445595 6.55102361,35.0763527 6.50662338,35.1081459 C6.46672601,35.1367913 6.42703806,35.1653318 6.38797843,35.194187 C6.34410178,35.2272393 6.30221477,35.2616558 6.25802399,35.2959673 C6.21990681,35.3265014 6.18147547,35.3568256 6.14419603,35.3884089 C6.10126184,35.4238747 6.06052672,35.4605995 6.0191633,35.4973243 L6.0191633,35.4973243 L5.90973349,35.5957469 L5.84927221,35.6537591 L5.84927221,35.6537591 L5.78951777,35.7126369 C5.754961,35.7468434 5.71977591,35.7806303 5.68584744,35.8157812 C5.67966909,35.8222867 5.6737002,35.8294219 5.6672077,35.8360323 C6.13487618,36.0782064 6.62767684,36.2682313 7.13670872,36.4027491 C7.40143462,35.5572383 7.87224461,34.7911581 8.5067281,34.1738659 Z" id="website"></path>
            </g>
        </g>
    </g>
</svg>