<?xml version="1.0" encoding="UTF-8"?>
<svg width="30px" height="30px" viewBox="0 0 30 30" version="1.1" xmlns="http://www.w3.org/2000/svg" xmlns:xlink="http://www.w3.org/1999/xlink">
    <title>1FECB481-CA97-4CC9-863D-31CA9C8517E2</title>
    <g id="email-signature" stroke="none" stroke-width="1" fill="none" fill-rule="evenodd" opacity="0.600960141">
        <g transform="translate(-513.000000, -238.000000)" fill="#1C1C21" id="Group-10">
            <g transform="translate(363.000000, 238.000000)">
                <path d="M174,0 C177.313708,-6.08718376e-16 180,2.6862915 180,6 L180,24 C180,27.3137085 177.313708,30 174,30 L156,30 C152.686292,30 150,27.3137085 150,24 L150,6 C150,2.6862915 152.686292,6.08718376e-16 156,0 L174,0 Z M165.192121,9.75057183 L164.807487,9.75055015 C163.913333,9.75453878 160.162434,9.7874449 159.130917,10.0589204 C158.500761,10.2317328 157.981749,10.7506276 157.808898,11.3929991 C157.535642,12.4310422 157.504113,14.4551858 157.500475,14.9084757 L157.500475,15.0919576 C157.504113,15.5473181 157.535642,17.5798078 157.808898,18.6070009 C157.981933,19.2493724 158.488401,19.7558188 159.131008,19.9288143 C160.173306,20.2110684 163.916109,20.245281 164.808141,20.249428 L164.98731,20.2499911 C164.995683,20.25 164.999983,20.25 164.999983,20.25 L165.012689,20.2499914 L165.012689,20.2499914 L165.192297,20.2494498 C166.08645,20.2454612 169.83735,20.2125551 170.868866,19.9410796 C171.511474,19.7681756 172.018034,19.2617292 172.191068,18.6193577 C172.464299,17.5812336 172.495826,15.5571523 172.499463,15.1038778 L172.499551,14.8522221 C172.495824,14.2898846 172.462796,12.3859099 172.190885,11.3929991 C172.018034,10.7505361 171.511382,10.2440896 170.868866,10.0710942 C170.370893,9.93487242 169.239118,9.8564417 168.100939,9.81128461 L167.614585,9.79389726 C166.567895,9.76032877 165.592964,9.7524303 165.192121,9.75057183 Z M163.50493,12.7517914 L167.40928,15 L163.50493,17.2482086 L163.50493,12.7517914 Z" id="youtube"></path>
            </g>
        </g>
    </g>
</svg>